<svg preserveAspectRatio="xMidYMid meet" data-bbox="22.5 47 154.917 106" viewBox="22.5 47 154.917 106" xmlns="http://www.w3.org/2000/svg" data-type="color" role="presentation" aria-hidden="true" aria-labelledby="svgcid--rmnpmy831cdc"><defs><style>#comp-isehzfdf1 svg [data-color="1"] {fill: #E6A80B;}</style></defs><title id="svgcid--rmnpmy831cdc"></title>
    <g>
        <path d="M174.2 105.6h-26.6l-9.4-32c-.6-1.3-1.9-2.1-3.3-2-1.4.1-2.6 1-3 2.4l-19.6 60-20.7-84.3c-.3-1.5-1.7-2.6-3.2-2.7-1.5 0-2.9 1-3.7 2.5l-22.9 56.3H25.9c-1.9 0-3.4 1.5-3.4 3.4v.8c0 1.9 1.5 3.4 3.4 3.4h39.4c1.6 0 3-1.1 3.3-2.7L87.7 62l21.3 87.9c.2 1.8 1.5 3 3 3.1h.3c1.4 0 2.7-.9 3.2-2.6l19.7-64.3 6.4 24.8c.5 1.3 1.8 2.2 3.2 2.2h29c1.9 0 3.4-1.5 3.4-3.4l.2-.8c.2-1.8-1.4-3.3-3.2-3.3z" fill="#5268db" data-color="1"></path>
    </g>
</svg>