<svg preserveAspectRatio="xMidYMid meet" data-bbox="47.026 13.5 106.03 173.1" viewBox="47.026 13.5 106.03 173.1" height="200" width="200" xmlns="http://www.w3.org/2000/svg" data-type="color" role="presentation" aria-hidden="true" aria-labelledby="svgcid-4li6c9yn6jd"><defs><style>#comp-isehzfde2 svg [data-color="1"] {fill: #FF8008;}</style></defs><title id="svgcid-4li6c9yn6jd"></title>
    <g>
        <path d="M150.9 54.3c0-5-4-9.1-9.1-9.1s-9.1 4-9.1 9.1 4 9.1 9.1 9.1c1.1 0 2.1-.3 3.2-.5.8 2.3.6 5.4-1 9.1-14 29.5-50.6 30.7-68.3 29.4-1.1-4.5-5-7.9-9.7-8.3C53.5 45.5 66 31.9 80.2 25c4-1.9 7.2-2.3 9.6-2 .3 4.8 4.2 8.7 9.1 8.7 5 0 9.1-4 9.1-9.1s-4-9.1-9.1-9.1c-2.4 0-4.5.9-6.2 2.4-3.9-.8-9.4-.8-15.9 2.4-23.5 11.4-29.1 35.4-18 77-2.6 2-4.4 5.2-4.4 8.8 0 1.5.3 2.9.9 4.2l-.3-.3c-.6.9-13.9 22.6-4.8 42.5 6.1 13.4 20.4 22.2 42.8 26.5.9 5.4 5.6 9.6 11.2 9.6 6.2 0 11.4-5 11.4-11.4 0-6.2-5-11.4-11.4-11.4-4.2 0-7.8 2.3-9.7 5.6-19.8-3.9-32.3-11.4-37.3-22.2-6.1-13.4.8-28.7 3.4-33.7 1.5.8 3.2 1.1 4.9 1.1 4.2 0 7.8-2.4 9.6-5.8 3 .3 6.7.5 10.6.5 20.9 0 51.7-5.3 65.2-34.3 3.3-7.1 2.5-13.6-.3-17.9.1-.9.3-1.9.3-2.8zm-47 115.8c2.8 0 5 2.3 5 5 0 2.8-2.3 5-5 5-2.8 0-5-2.3-5-5 0-2.8 2.2-5 5-5z" fill="#FF8008" data-color="1"></path>
    </g>
</svg>