<svg width="902" height="881" viewBox="0 0 902 881" fill="none" xmlns="http://www.w3.org/2000/svg">
<path d="M708.092 60.5733C759.8 83.0774 812.257 120.247 900.592 181.073C727.948 74.4199 644.924 37.6447 527.092 22.5732C435.789 17.0939 388.868 20.1297 312.592 36.0732C244.864 52.7524 207.938 67.3762 144.092 103.573C67.9987 149.762 30.058 187.071 5.59155 252.573C6.80298 217.31 8.13047 202.194 29.5916 167.573C59.6898 124.953 83.2641 103.502 133.592 76.5732C181.871 50.743 206.774 39.5932 246.092 27.5732C286.495 15.4677 310.873 9.31847 367.092 3.07332C429.305 -0.800802 459.258 -1.24214 498.092 3.07332C542.513 6.84937 567.972 11.7566 614.092 24.0733C646.276 35.0329 666.624 42.8488 708.092 60.5733Z" fill="url(#paint0_linear)"/>
<path d="M633.092 45.0734C712.092 69.0736 799.602 111.678 900.592 181.573L901.592 724.073C842.902 763.735 808.799 783.379 744.592 811.073C644.87 849.707 597.495 866.36 463.092 879.573C396.33 882.299 355.691 876.915 317.092 857.573C289.041 841.396 274.66 824.693 252.592 774.573C236.657 729.638 228.814 707.477 215.592 670.073C201.864 631.353 193.498 609.914 177.592 572.073C162.632 538.891 152.481 520.036 131.092 486.073C109.538 455.982 98.0357 440.973 78.5916 417.573C49.0382 384.355 34.1468 366.446 13.5916 337.073C0.283546 315.73 -1.13723 305.098 0.591632 287.073C2.4977 265.776 4.50995 254.302 11.5916 235.573C13.1146 230.663 23.5482 210.101 28.5916 203.573C49.9794 175.205 66.1419 158.37 109.592 125.073C155.262 94.1952 183.387 79.0149 239.592 57.0732C304.509 36.6055 338.223 28.8882 393.092 22.5734C489.566 14.5213 554.092 21.0732 633.092 45.0734Z" fill="url(#paint1_linear)" style="mix-blend-mode:multiply"/>
<defs>
<linearGradient id="paint0_linear" x1="6.00001" y1="218" x2="893" y2="172" gradientUnits="userSpaceOnUse">
<stop stop-color="#FF8008" stop-opacity="0.03"/>
<stop offset="0.0001" stop-color="#FF8008" stop-opacity="0.19"/>
<stop offset="1" stop-color="#FF8008" stop-opacity="0"/>
</linearGradient>
<linearGradient id="paint1_linear" x1="-7.28159e-07" y1="307.5" x2="902" y2="425" gradientUnits="userSpaceOnUse">
<stop stop-color="#FF8008"/>
<stop offset="0.720864" stop-color="#FF8008" stop-opacity="0.3"/>
</linearGradient>
</defs>
</svg>
